<svg width="80" height="80" viewBox="0 0 80 80" fill="none" xmlns="http://www.w3.org/2000/svg">
<path d="M15.4952 77.3438H20.1827C19.5587 77.3426 18.9412 77.2178 18.3657 76.9765C17.7902 76.7353 17.2682 76.3824 16.8299 75.9383C16.3916 75.4941 16.0456 74.9676 15.8119 74.3889C15.5783 73.8103 15.4616 73.1912 15.4687 72.5672V15.3953C15.4551 14.1622 15.9248 12.9728 16.7774 12.0817C17.6299 11.1907 18.7974 10.6689 20.0299 10.6281L15.4952 10.625C14.8716 10.6254 14.2542 10.7495 13.6787 10.9901C13.1033 11.2307 12.5813 11.583 12.1429 12.0266C11.7045 12.4702 11.3585 12.9964 11.1247 13.5746C10.891 14.1528 10.7742 14.7717 10.7812 15.3953V72.5672C10.7741 73.1912 10.8908 73.8103 11.1244 74.3889C11.3581 74.9676 11.7041 75.4941 12.1424 75.9383C12.5807 76.3824 13.1027 76.7353 13.6782 76.9765C14.2537 77.2178 14.8712 77.3426 15.4952 77.3438Z" fill="#F8F7FF"/>
<path d="M69.867 10.8578L59.6951 1.98516C59.5516 1.85769 59.3717 1.77864 59.1807 1.75922L25.056 1.71875C24.3075 1.72012 23.5667 1.86912 22.8758 2.1572C22.185 2.44529 21.5578 2.86682 21.0301 3.39764C20.5024 3.92847 20.0846 4.55817 19.8005 5.25069C19.5165 5.94321 19.3719 6.68495 19.375 7.43344V9.6875H15.4959C14.7493 9.68867 14.0103 9.83751 13.3214 10.1255C12.6325 10.4134 12.0074 10.8348 11.4821 11.3653C10.9568 11.8958 10.5415 12.525 10.2603 13.2166C9.97916 13.9083 9.83756 14.6487 9.8437 15.3953V72.5672C9.8375 73.3141 9.97901 74.0549 10.2601 74.7469C10.5412 75.4389 10.9563 76.0685 11.4816 76.5996C12.0069 77.1306 12.6319 77.5525 13.3209 77.8411C14.0098 78.1298 14.749 78.2793 15.4959 78.2812H54.9439C55.6924 78.2799 56.4332 78.1309 57.1241 77.8428C57.8149 77.5547 58.4421 77.1332 58.9698 76.6024C59.4975 76.0715 59.9153 75.4418 60.1994 74.7493C60.4834 74.0568 60.628 73.315 60.625 72.5666V70.3125H64.504C65.2506 70.3113 65.9896 70.1625 66.6785 69.8745C67.3674 69.5866 67.9925 69.1652 68.5178 68.6347C69.0432 68.1042 69.4584 67.475 69.7396 66.7834C70.0207 66.0917 70.1623 65.3513 70.1562 64.6047V11.5648C70.1622 11.4331 70.1395 11.3015 70.0895 11.1794C70.0396 11.0573 69.9636 10.9476 69.867 10.8578ZM60 4.72047L66.8212 10.625H60V4.72047ZM58.75 72.5666C58.7533 73.0689 58.6573 73.5669 58.4676 74.0321C58.278 74.4973 57.9983 74.9204 57.6446 75.2771C57.291 75.6339 56.8703 75.9173 56.4069 76.1111C55.9434 76.3048 55.4462 76.4052 54.9439 76.4062H15.4959C14.9951 76.4046 14.4995 76.3037 14.0379 76.1093C13.5763 75.915 13.1578 75.6311 12.8066 75.2741C12.4554 74.917 12.1784 74.4939 11.9917 74.0292C11.8049 73.5645 11.7122 73.0674 11.7187 72.5666V15.3953C11.7123 14.8949 11.8052 14.3981 11.992 13.9339C12.1789 13.4696 12.456 13.047 12.8073 12.6905C13.1586 12.334 13.5771 12.0508 14.0386 11.8572C14.5001 11.6635 14.9954 11.5634 15.4959 11.5625H48.5937V19.5625C48.5907 19.6823 48.6121 19.8015 48.6566 19.9128C48.701 20.0241 48.7677 20.1252 48.8525 20.21C48.9372 20.2948 49.0383 20.3614 49.1496 20.4059C49.2609 20.4504 49.3801 20.4718 49.5 20.4688H58.75V72.5666ZM50.4687 18.5938V12.6823L57.261 18.5938H50.4687ZM68.2812 64.6047C68.2876 65.1051 68.1947 65.6019 68.0079 66.0661C67.821 66.5304 67.5439 66.953 67.1926 67.3095C66.8413 67.666 66.4228 67.9492 65.9613 68.1428C65.4998 68.3365 65.0045 68.4366 64.504 68.4375H60.625V19.5267C60.6283 19.394 60.6028 19.262 60.5504 19.14C60.498 19.018 60.4199 18.9087 60.3214 18.8197L50.1418 9.94703C49.997 9.81947 49.8158 9.74051 49.6237 9.72125L21.25 9.6875V7.43344C21.2466 6.9311 21.3426 6.43306 21.5323 5.9679C21.7219 5.50275 22.0016 5.07964 22.3553 4.72287C22.7089 4.3661 23.1296 4.0827 23.593 3.88893C24.0565 3.69516 24.5537 3.59485 25.056 3.59375H58.125V11.6006C58.1254 11.7216 58.1501 11.8413 58.1977 11.9525C58.2452 12.0637 58.3147 12.1643 58.4018 12.2481C58.489 12.332 58.5921 12.3976 58.7051 12.4408C58.8181 12.4841 58.9386 12.5042 59.0595 12.5H68.2812V64.6047Z" fill="url(#paint0_linear_262_310)"/>
<path d="M15 15.6898C14.7514 15.6898 14.5129 15.7886 14.3371 15.9644C14.1613 16.1402 14.0625 16.3787 14.0625 16.6273V17.7065C14.0625 17.9552 14.1613 18.1936 14.3371 18.3695C14.5129 18.5453 14.7514 18.644 15 18.644C15.2486 18.644 15.4871 18.5453 15.6629 18.3695C15.8387 18.1936 15.9375 17.9552 15.9375 17.7065V16.6273C15.9375 16.3787 15.8387 16.1402 15.6629 15.9644C15.4871 15.7886 15.2486 15.6898 15 15.6898Z" fill="url(#paint1_linear_262_310)"/>
<path d="M15 20.4033C14.7514 20.4033 14.5129 20.502 14.3371 20.6778C14.1613 20.8537 14.0625 21.0921 14.0625 21.3408V36.3375C14.0625 36.5861 14.1613 36.8246 14.3371 37.0004C14.5129 37.1762 14.7514 37.275 15 37.275C15.2486 37.275 15.4871 37.1762 15.6629 37.0004C15.8387 36.8246 15.9375 36.5861 15.9375 36.3375V21.3408C15.9375 21.0921 15.8387 20.8537 15.6629 20.6778C15.4871 20.502 15.2486 20.4033 15 20.4033Z" fill="url(#paint2_linear_262_310)"/>
<path d="M18.4895 57.8125H31.0772C31.3258 57.8125 31.5643 57.7137 31.7401 57.5379C31.9159 57.3621 32.0147 57.1236 32.0147 56.875C32.0147 56.6264 31.9159 56.3879 31.7401 56.2121C31.5643 56.0363 31.3258 55.9375 31.0772 55.9375H18.4895C18.2409 55.9375 18.0024 56.0363 17.8266 56.2121C17.6508 56.3879 17.552 56.6264 17.552 56.875C17.552 57.1236 17.6508 57.3621 17.8266 57.5379C18.0024 57.7137 18.2409 57.8125 18.4895 57.8125Z" fill="url(#paint3_linear_262_310)"/>
<path d="M18.4895 64.2188H51.7909C52.0395 64.2188 52.278 64.12 52.4538 63.9442C52.6296 63.7683 52.7284 63.5299 52.7284 63.2812C52.7284 63.0326 52.6296 62.7942 52.4538 62.6183C52.278 62.4425 52.0395 62.3438 51.7909 62.3438H18.4895C18.2409 62.3438 18.0024 62.4425 17.8266 62.6183C17.6508 62.7942 17.552 63.0326 17.552 63.2812C17.552 63.5299 17.6508 63.7683 17.8266 63.9442C18.0024 64.12 18.2409 64.2188 18.4895 64.2188Z" fill="#1AE5BE"/>
<path d="M52.7284 69.6875C52.7284 69.4389 52.6296 69.2004 52.4538 69.0246C52.278 68.8488 52.0395 68.75 51.7909 68.75H18.4895C18.2409 68.75 18.0024 68.8488 17.8266 69.0246C17.6508 69.2004 17.552 69.4389 17.552 69.6875C17.552 69.9361 17.6508 70.1746 17.8266 70.3504C18.0024 70.5262 18.2409 70.625 18.4895 70.625H51.7909C52.0395 70.625 52.278 70.5262 52.4538 70.3504C52.6296 70.1746 52.7284 69.9361 52.7284 69.6875Z" fill="#1AE5BE"/>
<path d="M35.0606 41.3992C35.6869 41.399 36.2991 41.213 36.8197 40.8648C37.3403 40.5167 37.746 40.022 37.9854 39.4433C38.2249 38.8646 38.2874 38.2278 38.1651 37.6136C38.0427 36.9994 37.7409 36.4352 37.298 35.9925C36.855 35.5497 36.2907 35.2483 35.6764 35.1262C35.0621 35.0042 34.4255 35.067 33.8469 35.3067C33.2683 35.5465 32.7738 35.9524 32.4259 36.4732C32.078 36.994 31.8923 37.6062 31.8923 38.2325C31.8935 39.0723 32.2277 39.8773 32.8217 40.471C33.4156 41.0647 34.2208 41.3985 35.0606 41.3992ZM35.0606 36.9405C35.3161 36.9408 35.5657 37.0168 35.7779 37.1589C35.9902 37.301 36.1556 37.5029 36.2531 37.7389C36.3507 37.975 36.3761 38.2347 36.3261 38.4852C36.2761 38.7357 36.153 38.9658 35.9723 39.1463C35.7916 39.3268 35.5614 39.4498 35.3108 39.4995C35.0603 39.5493 34.8006 39.5236 34.5646 39.4258C34.3286 39.328 34.1269 39.1625 33.985 38.9501C33.8431 38.7377 33.7674 38.488 33.7673 38.2325C33.7679 37.8898 33.9043 37.5613 34.1468 37.3191C34.3893 37.0768 34.7179 36.9407 35.0606 36.9405Z" fill="#1AE5BE"/>
<path d="M21.0389 36.6905C21.4916 36.6901 21.9377 36.5817 22.3401 36.3744C22.7426 36.167 23.0897 35.8666 23.3528 35.4981L28.5223 40.5408L27.4165 46.9927C26.8438 46.6579 26.1722 46.5334 25.5175 46.6408C24.8628 46.7481 24.2662 47.0805 23.8303 47.5807C23.3945 48.0808 23.1468 48.7174 23.1301 49.3806C23.1133 50.0438 23.3285 50.6921 23.7385 51.2136C24.1485 51.7351 24.7277 52.0973 25.3761 52.2375C26.0245 52.3778 26.7015 52.2874 27.2904 51.982C27.8794 51.6766 28.3432 51.1752 28.6021 50.5644C28.8609 49.9535 28.8985 49.2715 28.7084 48.636L35.0606 45.2942L41.4126 48.6358C41.2204 49.2742 41.2571 49.9598 41.5164 50.574C41.7757 51.1883 42.2414 51.6927 42.833 52.0002C43.4246 52.3077 44.105 52.399 44.7567 52.2584C45.4085 52.1177 45.9906 51.7539 46.4027 51.2298C46.8148 50.7056 47.031 50.054 47.0139 49.3875C46.9968 48.721 46.7475 48.0813 46.3091 47.579C45.8706 47.0767 45.2706 46.7432 44.6125 46.6362C43.9544 46.5291 43.2795 46.6552 42.7045 46.9927L41.5985 40.5408L46.7684 35.4981C47.1644 36.0483 47.7439 36.4389 48.4025 36.5995C49.0611 36.7601 49.7553 36.6802 50.3602 36.3742C50.965 36.0682 51.4407 35.5562 51.7014 34.9304C51.9621 34.3047 51.9907 33.6064 51.7821 32.9615C51.5734 32.3165 51.1413 31.7673 50.5635 31.4128C49.9857 31.0583 49.3003 30.9219 48.6308 31.0281C47.9613 31.1343 47.3518 31.4762 46.9121 31.9921C46.4723 32.508 46.2314 33.164 46.2326 33.8419C46.2326 33.8575 46.2346 33.8722 46.235 33.8877L39.1015 32.8505L36.1718 26.9103C36.7771 26.654 37.2752 26.1962 37.5816 25.6147C37.8881 25.0331 37.984 24.3635 37.8532 23.7193C37.7224 23.0751 37.3729 22.4959 36.864 22.0799C36.355 21.6638 35.7179 21.4366 35.0605 21.4366C34.4031 21.4366 33.766 21.6638 33.257 22.0799C32.7481 22.4959 32.3986 23.0751 32.2678 23.7193C32.137 24.3635 32.2329 25.0331 32.5394 25.6147C32.8458 26.1962 33.3439 26.654 33.9492 26.9103L31.0195 32.8506L23.8862 33.8878C23.8862 33.8722 23.8884 33.8575 23.8884 33.842C23.8886 33.2784 23.7217 32.7274 23.4087 32.2586C23.0957 31.7899 22.6508 31.4245 22.1301 31.2086C21.6094 30.9928 21.0364 30.9362 20.4836 31.046C19.9308 31.1559 19.423 31.4272 19.0243 31.8256C18.6257 32.2241 18.3542 32.7318 18.2442 33.2846C18.1341 33.8374 18.1905 34.4104 18.4061 34.9312C18.6218 35.4519 18.987 35.897 19.4556 36.2102C19.9243 36.5233 20.4752 36.6905 21.0389 36.6905ZM49.0821 32.8688C49.2746 32.869 49.4627 32.9263 49.6227 33.0334C49.7826 33.1405 49.9072 33.2926 49.9807 33.4705C50.0542 33.6484 50.0733 33.8441 50.0356 34.0328C49.9979 34.2216 49.9051 34.3949 49.7689 34.531C49.6327 34.667 49.4593 34.7596 49.2705 34.797C49.0817 34.8345 48.886 34.8151 48.7082 34.7414C48.5304 34.6677 48.3784 34.5429 48.2715 34.3828C48.1646 34.2227 48.1076 34.0345 48.1076 33.842C48.1081 33.5838 48.2109 33.3364 48.3936 33.1539C48.5763 32.9714 48.8239 32.8689 49.0821 32.8688ZM25.9784 50.421C25.7859 50.4207 25.5978 50.3635 25.4379 50.2564C25.2779 50.1493 25.1533 49.9972 25.0798 49.8193C25.0063 49.6414 24.9872 49.4457 25.0249 49.2569C25.0626 49.0682 25.1554 48.8948 25.2916 48.7588C25.4277 48.6228 25.6012 48.5302 25.79 48.4927C25.9788 48.4552 26.1745 48.4746 26.3523 48.5483C26.5301 48.622 26.682 48.7468 26.7889 48.9068C26.8959 49.0669 26.9529 49.255 26.9529 49.4475C26.9525 49.7057 26.8496 49.9532 26.6669 50.1357C26.4842 50.3182 26.2366 50.4208 25.9784 50.421ZM44.1428 48.4741C44.3352 48.4743 44.5233 48.5316 44.6832 48.6387C44.8432 48.7459 44.9677 48.898 45.0412 49.0759C45.1147 49.2538 45.1338 49.4494 45.0961 49.6382C45.0584 49.8269 44.9656 50.0003 44.8294 50.1363C44.6932 50.2723 44.5198 50.3649 44.331 50.4023C44.1422 50.4398 43.9465 50.4204 43.7687 50.3467C43.5909 50.273 43.439 50.1483 43.332 49.9882C43.2251 49.8281 43.1681 49.64 43.1681 49.4475C43.1685 49.1893 43.2714 48.9417 43.4541 48.7592C43.6368 48.5767 43.8845 48.4742 44.1428 48.4741ZM35.0606 23.3144C35.2531 23.3146 35.4412 23.3719 35.6011 23.4791C35.761 23.5862 35.8856 23.7383 35.959 23.9162C36.0325 24.0941 36.0516 24.2898 36.0139 24.4786C35.9762 24.6673 35.8834 24.8406 35.7472 24.9766C35.611 25.1127 35.4375 25.2052 35.2487 25.2427C35.0599 25.2801 34.8642 25.2607 34.6864 25.187C34.5086 25.1133 34.3567 24.9885 34.2498 24.8284C34.1429 24.6683 34.0859 24.4802 34.0859 24.2877C34.0863 24.0294 34.1892 23.7819 34.372 23.5995C34.5547 23.417 34.8023 23.3145 35.0606 23.3144ZM31.7771 34.6352C31.9276 34.6133 32.0705 34.5552 32.1935 34.4658C32.3164 34.3764 32.4158 34.2584 32.4831 34.122L35.0612 28.896L37.6393 34.122C37.7066 34.2584 37.806 34.3763 37.929 34.4657C38.052 34.5551 38.1948 34.6132 38.3453 34.6352L44.11 35.4733L39.9381 39.5427C39.8293 39.6487 39.748 39.7797 39.7011 39.9241C39.6542 40.0686 39.6431 40.2223 39.6687 40.372L40.6531 46.117L35.4981 43.4052C35.3635 43.3344 35.2137 43.2974 35.0616 43.2974C34.9095 43.2974 34.7597 43.3344 34.6251 43.4052L29.4687 46.1172L30.4531 40.372C30.4787 40.2223 30.4676 40.0686 30.4207 39.9241C30.3738 39.7797 30.2924 39.6487 30.1837 39.5427L26.0118 35.4733L31.7771 34.6352ZM21.0389 32.8695C21.2314 32.8698 21.4195 32.927 21.5794 33.0341C21.7393 33.1412 21.8639 33.2934 21.9374 33.4713C22.0109 33.6492 22.0301 33.8449 21.9924 34.0336C21.9547 34.2224 21.8618 34.3957 21.7257 34.5317C21.5895 34.6678 21.416 34.7604 21.2272 34.7978C21.0384 34.8353 20.8427 34.8159 20.6649 34.7422C20.4871 34.6684 20.3351 34.5436 20.2282 34.3836C20.1213 34.2235 20.0643 34.0353 20.0643 33.8428C20.0646 33.5845 20.1673 33.3368 20.3501 33.1542C20.5328 32.9715 20.7805 32.8689 21.0389 32.8688V32.8695Z" fill="#1AE5BE"/>
<defs>
<linearGradient id="paint0_linear_262_310" x1="9.84351" y1="1.71875" x2="72.284" y2="3.49446" gradientUnits="userSpaceOnUse">
<stop stop-color="#2E58FF"/>
<stop offset="1" stop-color="#582EFF"/>
</linearGradient>
<linearGradient id="paint1_linear_262_310" x1="14.0625" y1="15.6898" x2="16.0042" y2="15.7343" gradientUnits="userSpaceOnUse">
<stop stop-color="#2E58FF"/>
<stop offset="1" stop-color="#582EFF"/>
</linearGradient>
<linearGradient id="paint2_linear_262_310" x1="14.0625" y1="20.4033" x2="16.0052" y2="20.4111" gradientUnits="userSpaceOnUse">
<stop stop-color="#2E58FF"/>
<stop offset="1" stop-color="#582EFF"/>
</linearGradient>
<linearGradient id="paint3_linear_262_310" x1="17.552" y1="55.9375" x2="31.4585" y2="59.8098" gradientUnits="userSpaceOnUse">
<stop stop-color="#2E58FF"/>
<stop offset="1" stop-color="#582EFF"/>
</linearGradient>
</defs>
</svg>
