<svg width="80" height="80" viewBox="0 0 80 80" fill="none" xmlns="http://www.w3.org/2000/svg">
<g clip-path="url(#clip0_188_1438)">
<path d="M56.2754 61.659C56.1167 61.659 55.958 61.6533 55.8006 61.645C55.7308 61.6412 55.6616 61.6342 55.5917 61.6285C55.5092 61.6222 55.4267 61.6158 55.3442 61.607C55.249 61.5968 55.1538 61.5841 55.0592 61.5708C55.0103 61.5644 54.9608 61.5574 54.9126 61.5498C54.7945 61.5308 54.6771 61.5105 54.5603 61.4864L54.5178 61.4775C50.8553 60.7088 48.1031 57.6716 47.6981 53.9514C47.695 53.9228 47.6924 53.8942 47.6899 53.865C47.6797 53.759 47.6715 53.6518 47.6651 53.5445C47.6632 53.5096 47.6607 53.4753 47.6594 53.4404C47.6531 53.3046 47.6486 53.1687 47.6486 53.0316C47.6473 51.1407 48.27 49.3025 49.4208 47.802C47.2805 49.4314 46.0243 51.9665 46.0237 54.6566C46.0237 54.7937 46.0281 54.9295 46.0345 55.0653C46.0357 55.1002 46.0383 55.1345 46.0402 55.1694C46.0465 55.2767 46.0548 55.384 46.0649 55.49C46.0675 55.5192 46.07 55.5477 46.0732 55.5763C46.4782 59.2965 49.2304 62.3337 52.8928 63.1024L52.9354 63.1113C53.0522 63.1354 53.1696 63.1557 53.2876 63.1748C53.3359 63.1824 53.3848 63.1894 53.4343 63.1957C53.5288 63.209 53.6241 63.2217 53.7193 63.2319C53.8018 63.2408 53.8843 63.2471 53.9668 63.2535C54.0366 63.2592 54.1058 63.2655 54.1756 63.27C54.3331 63.2782 54.4917 63.2839 54.6504 63.2839C57.3405 63.2833 59.8762 62.0265 61.5056 59.8862C60.0051 61.037 58.1669 61.6603 56.2754 61.659V61.659Z" fill="#C4CDDE"/>
<path d="M10.3317 28.4596L11.683 26.3408C14.3559 22.1395 18.323 18.9213 22.9865 17.1726C23.0893 17.1396 23.1858 17.0895 23.2721 17.0241C23.4803 16.8641 23.6149 16.6268 23.6447 16.3659C23.8427 14.6534 23.7735 12.9211 23.439 11.2302C22.3485 10.612 21.1502 10.2076 19.9086 10.0394C20.4754 12.0973 20.6405 14.2452 20.3948 16.3659C20.365 16.6268 20.2304 16.8641 20.0222 17.0241C19.9359 17.0895 19.8394 17.1396 19.7366 17.1726C15.0732 18.9213 11.106 22.1395 8.43316 26.3408L7.08243 28.4596C6.89963 28.7338 6.58733 28.8931 6.2579 28.8804H9.50777C9.8372 28.8931 10.1489 28.7338 10.3317 28.4596Z" fill="#C4CDDE"/>
<path d="M17.8648 58.5221C17.8794 54.3779 16.3541 50.3759 13.5847 47.2929C12.3425 45.9378 11.3073 44.4068 10.5132 42.7488C10.3507 42.4111 10.0067 42.1985 9.63155 42.2049H6.38168C6.75681 42.1985 7.10148 42.4105 7.26397 42.7488C8.05803 44.4068 9.09266 45.9378 10.3348 47.2929C13.1042 50.3759 14.6301 54.3779 14.6155 58.5221C14.6149 59.466 15.3759 60.2334 16.3192 60.2416H19.569C18.6252 60.2334 17.8648 59.466 17.8648 58.5221V58.5221Z" fill="#C4CDDE"/>
<path d="M5.19979 41.3238V29.788C5.19979 29.3241 5.52477 28.8804 5.98877 28.8804H2.7389C2.27491 28.8804 1.94992 29.3241 1.94992 29.788V41.3238C1.94992 41.7878 2.27491 42.2048 2.7389 42.2048H5.98877C5.52477 42.2048 5.19979 41.7878 5.19979 41.3238Z" fill="#C4CDDE"/>
<path d="M20.0038 26.7895C20.0108 27.5487 19.6097 28.2532 18.9527 28.6354C18.2957 29.0168 17.4852 29.0168 16.8282 28.6354C16.1713 28.2532 15.7701 27.5487 15.7771 26.7895C15.7771 26.2506 15.3404 25.8146 14.8021 25.8146C14.2632 25.8146 13.8272 26.2506 13.8272 26.7895C13.8177 28.2469 14.5901 29.5983 15.8514 30.3301C17.112 31.0613 18.6683 31.0613 19.9296 30.3301C21.1908 29.5983 21.9633 28.2469 21.9537 26.7895C21.9537 26.2506 21.5177 25.8146 20.9788 25.8146C20.4405 25.8146 20.0038 26.2506 20.0038 26.7895Z" fill="url(#paint0_linear_188_1438)"/>
<path d="M62.6697 27.9397C62.1308 27.9397 61.6948 28.3764 61.6948 28.9147C61.6916 31.0455 60.1251 32.8507 58.0165 33.1541C56.5648 21.7827 45.9107 12.9262 33.0249 12.9262C31.4894 12.9268 29.9565 13.0443 28.4395 13.2772C26.237 9.98102 22.5345 8.00127 18.5699 8C18.2608 8 17.9701 8.14662 17.786 8.39544C17.602 8.64363 17.5474 8.9648 17.6381 9.26059L17.9047 10.1334C18.4455 11.8897 18.6518 13.7317 18.5128 15.5636C13.6831 17.4957 9.58139 20.8947 6.78537 25.2808L5.72154 26.9305H2.7389C1.19966 26.9305 0 28.2488 0 29.7881V41.3238C0 42.8631 1.19966 44.1548 2.7389 44.1548H5.77423C6.64001 45.753 7.68479 47.2485 8.88762 48.6119C11.3333 51.3356 12.6796 54.8711 12.665 58.5322C12.6669 60.5501 14.3013 62.1864 16.3192 62.1915H20.0457C22.0629 62.1883 23.6974 60.5526 23.6999 58.5354C23.7005 57.5941 24.4629 56.8311 25.4035 56.8292H30.8471C31.386 56.8292 31.822 56.3925 31.822 55.8543C31.822 55.316 31.386 54.8793 30.8471 54.8793H25.4035C23.3863 54.8825 21.7519 56.5182 21.75 58.5354C21.7487 59.4767 20.987 60.2397 20.0457 60.2416H16.3192C15.3753 60.2333 14.6149 59.4659 14.6149 58.5221C14.6295 54.3779 13.1042 50.3758 10.3348 47.2929C9.09264 45.9377 8.05738 44.4067 7.26332 42.7488C7.10083 42.4111 6.7568 42.1985 6.38167 42.2048H2.7389C2.27491 42.2048 1.94992 41.7878 1.94992 41.3238V29.7881C1.94992 29.3241 2.27491 28.8804 2.7389 28.8804H6.2579C6.58733 28.8931 6.89898 28.7338 7.08179 28.4596L8.43315 26.3408C11.106 22.1395 15.0732 18.9213 19.7366 17.1726C19.8394 17.1396 19.9359 17.0895 20.0222 17.0241C20.2304 16.8641 20.365 16.6267 20.3948 16.3659C20.6405 14.2452 20.4754 12.0972 19.9086 10.0394C24.8253 10.7148 28.4903 14.9129 28.4966 19.876C28.4966 20.4149 28.9333 20.8509 29.4716 20.8509C30.0098 20.8509 30.4466 20.4149 30.4466 19.876C30.4478 18.2326 30.1057 16.6071 29.4418 15.104C30.63 14.9529 31.8265 14.8768 33.0242 14.8755C45.8244 14.8755 56.2373 24.2665 56.2373 35.8092C56.2398 38.8737 55.5029 41.8938 54.09 44.613C53.9268 44.9234 53.9427 45.2967 54.1312 45.5918C54.3204 45.887 54.6523 46.0583 55.0021 46.0406C55.3518 46.0228 55.6654 45.8184 55.8234 45.5061C57.3792 42.5108 58.1904 39.1847 58.1872 35.8092C58.1872 35.5712 58.1815 35.3344 58.1739 35.0983C61.2955 34.7105 63.6403 32.0598 63.6447 28.914C63.6441 28.3758 63.208 27.9397 62.6697 27.9397Z" fill="url(#paint1_linear_188_1438)"/>
<path d="M79.9994 57.5497C79.9962 55.443 78.2862 53.7387 76.1795 53.7419H65.1833C64.7066 48.3796 60.1663 44.0919 54.6504 44.0919C54.2518 44.0907 53.8532 44.1122 53.4565 44.1554C53.261 43.833 53.0185 43.541 52.738 43.289C53.5473 42.5768 54.0119 41.5504 54.0119 40.472C54.0094 39.4621 53.6057 38.4948 52.8884 37.7833C52.1718 37.0717 51.2019 36.675 50.192 36.6801H33.122C31.5427 36.6661 30.1209 37.6341 29.5541 39.108C28.9873 40.5818 29.3948 42.2531 30.576 43.301C29.7642 44.0234 29.3002 45.0586 29.3021 46.1453C29.3034 47.232 29.7699 48.266 30.5837 48.9864C29.7687 49.7094 29.3015 50.7472 29.3015 51.8364C29.3015 52.9262 29.7687 53.964 30.5837 54.687C29.7687 55.41 29.3015 56.4478 29.3015 57.5383C29.3015 58.6281 29.7687 59.6659 30.5837 60.3889C29.761 61.1188 29.2939 62.168 29.3021 63.2674C29.3097 64.3674 29.7921 65.4097 30.6249 66.1275C29.7858 66.8353 29.3021 67.8769 29.3015 68.9744C29.3047 69.983 29.709 70.9484 30.4262 71.658C31.1429 72.367 32.1134 72.7618 33.122 72.7536H50.192C51.7795 72.772 53.2089 71.7951 53.7688 70.3092C54.3286 68.8233 53.8989 67.1463 52.6942 66.1123C53.0109 65.8406 53.28 65.5182 53.4901 65.1583C53.5473 65.1646 53.6044 65.1748 53.6609 65.1805C53.7961 65.1932 53.9313 65.2065 54.0671 65.2142C54.1027 65.2161 54.1382 65.2186 54.1738 65.2199C54.3324 65.2275 54.4918 65.2332 54.6511 65.2332C55.0395 65.2326 55.4274 65.211 55.8126 65.1678C56.0056 65.4992 56.2474 65.7994 56.5299 66.0584C55.369 67.1323 54.9799 68.8055 55.5486 70.2813C56.1173 71.7571 57.5283 72.7371 59.1101 72.7536H76.1795C77.76 72.7409 79.1723 71.764 79.7417 70.2895C80.3104 68.815 79.9207 67.1425 78.7578 66.0717C79.5564 65.3417 80.0076 64.3078 80 63.2262C79.9924 62.1452 79.5265 61.1175 78.7179 60.399C79.5335 59.6761 80 58.6389 79.9994 57.5497ZM78.0495 57.5605C78.0482 58.5926 77.2116 59.4285 76.1795 59.4291H64.096C64.6831 58.2606 65.05 56.9936 65.1782 55.6918H76.1789C77.2116 55.6918 78.0482 56.5284 78.0495 57.5605ZM31.2514 40.4987C31.2527 39.4666 32.0899 38.6306 33.122 38.63H50.192C51.2235 38.63 52.0607 39.4666 52.0607 40.4987C52.0607 41.5308 51.2235 42.3673 50.192 42.3673H33.122C32.0899 42.3667 31.2527 41.5308 31.2514 40.4987ZM50.192 44.3173C50.5913 44.3166 50.9804 44.4442 51.3022 44.681C49.3745 45.3265 47.6937 46.4297 46.4382 48.0546H33.122C32.0899 48.0546 31.2533 47.218 31.2533 46.1859C31.2533 45.1539 32.0899 44.3173 33.122 44.3173H50.192ZM47.9254 62.8187C47.9266 62.8199 47.9285 62.8187 47.9305 62.8199C48.0422 62.912 48.1558 63.0002 48.2713 63.0871C48.305 63.1132 48.3392 63.1379 48.3729 63.1633C48.4598 63.2268 48.5474 63.289 48.6356 63.3499C49.4722 63.932 50.3888 64.389 51.3561 64.7083C51.0254 64.9723 50.6148 65.1164 50.192 65.1164H33.122C32.0899 65.1164 31.2533 64.2798 31.2533 63.2477C31.2533 62.2156 32.0899 61.3791 33.122 61.3791H46.4788C46.9244 61.8945 47.4081 62.3756 47.9254 62.8187ZM45.1985 59.4291H33.122C32.0899 59.4291 31.2533 58.5926 31.2533 57.5605C31.2533 56.5284 32.0899 55.6918 33.122 55.6918H44.1227C44.1227 55.6918 44.1227 55.6867 44.1233 55.6899C44.1271 55.7261 44.1309 55.7667 44.1341 55.8029C44.2674 57.066 44.6279 58.2942 45.1985 59.4291ZM44.1188 53.7419H33.122C32.0899 53.7419 31.2533 52.9053 31.2533 51.8732C31.2533 50.8411 32.0899 50.0045 33.122 50.0045H45.1757C44.5968 51.175 44.2388 52.4419 44.1188 53.7419ZM50.192 70.8037H33.122C32.0899 70.8037 31.2533 69.9671 31.2533 68.935C31.2533 67.9029 32.0899 67.0663 33.122 67.0663H50.192C51.2235 67.0663 52.0607 67.9029 52.0607 68.935C52.0607 69.9671 51.2235 70.8037 50.192 70.8037ZM54.175 63.27C54.1052 63.2661 54.036 63.2592 53.9662 63.2534C53.8837 63.2471 53.8012 63.2408 53.7186 63.2319C53.6234 63.2217 53.5289 63.209 53.4343 63.1957C53.3854 63.1893 53.3359 63.1824 53.287 63.1747C53.169 63.1557 53.0515 63.1354 52.9354 63.1113L52.8922 63.1024C49.2298 62.3337 46.4782 59.2965 46.0732 55.5763C46.07 55.5477 46.0675 55.5191 46.0643 55.49C46.0542 55.3839 46.0459 55.2767 46.0402 55.1694C46.0377 55.1345 46.0351 55.1002 46.0339 55.0653C46.0275 54.9295 46.0231 54.7936 46.0231 54.6565C46.0231 49.8915 49.8855 46.0292 54.6504 46.0292C59.4148 46.0292 63.2772 49.8915 63.2772 54.6565C63.2772 59.4209 59.4148 63.2833 54.6504 63.2833C54.4918 63.2839 54.3331 63.2782 54.175 63.27ZM78.0495 68.9026C78.0514 69.9411 77.218 70.7878 76.1795 70.8037H59.1101C58.1466 70.7916 57.3462 70.0579 57.2497 69.0988C57.1532 68.1403 57.7924 67.2618 58.7344 67.0587C58.8581 67.0708 58.9832 67.0663 59.1101 67.0663H76.1795C76.3084 67.0663 76.4353 67.072 76.5604 67.0593C77.4287 67.2466 78.0488 68.014 78.0495 68.9026ZM76.1795 65.1164H59.1101C58.9825 65.1164 58.8569 65.091 58.7325 65.1031C58.4443 65.0409 58.1751 64.9114 57.946 64.7254C59.8718 64.0926 61.5558 62.8415 62.8176 61.3791H76.1795C77.211 61.3784 78.0482 62.2131 78.0495 63.2446C78.0501 64.137 77.4312 64.9108 76.5604 65.1056C76.4353 65.0929 76.3084 65.1164 76.1795 65.1164Z" fill="url(#paint2_linear_188_1438)"/>
<path d="M54.6504 50.1403C55.6114 50.1416 56.3896 50.9198 56.3909 51.8802C56.3909 52.4184 56.8269 52.8551 57.3658 52.8551C57.6216 52.8539 57.866 52.7504 58.0444 52.567C58.2227 52.3835 58.3198 52.136 58.3141 51.8802C58.3249 50.2057 57.1945 48.7382 55.5727 48.3218V47.6738C55.5727 47.1349 55.136 46.6988 54.5977 46.6988C54.0595 46.6988 53.6228 47.1349 53.6228 47.6738V48.3218C52.1603 48.7509 50.9347 50.1829 50.9347 51.8808C50.9429 53.9202 52.5983 55.5693 54.6377 55.5705C55.5981 55.5623 56.3833 56.3348 56.3915 57.2951C56.3991 58.2561 55.6266 59.0413 54.6663 59.0489C54.6599 59.0489 54.6555 59.0483 54.6492 59.0483C54.6428 59.0483 54.6371 59.0483 54.6307 59.0489C53.6786 59.0381 52.9119 58.2631 52.9106 57.3104C52.9106 56.7721 52.4739 56.3354 51.9356 56.3354C51.3917 56.3335 50.9467 56.767 50.934 57.3104C50.934 59.0077 52.1603 60.4396 53.6228 60.8694V61.6412C53.6228 62.1795 54.0588 62.6162 54.5977 62.6162C55.136 62.6162 55.5727 62.1795 55.5727 61.6412V60.8694C57.3608 60.3952 58.5204 58.67 58.2837 56.8349C58.0469 55.0005 56.4874 53.6257 54.6371 53.6213C53.6824 53.6092 52.9157 52.8297 52.9195 51.8751C52.9233 50.9198 53.6958 50.1461 54.6504 50.1416V50.1403Z" fill="url(#paint3_linear_188_1438)"/>
</g>
<defs>
<linearGradient id="paint0_linear_188_1438" x1="13.8271" y1="25.8146" x2="22.219" y2="26.3008" gradientUnits="userSpaceOnUse">
<stop stop-color="#2E58FF"/>
<stop offset="1" stop-color="#582EFF"/>
</linearGradient>
<linearGradient id="paint1_linear_188_1438" x1="0" y1="8" x2="65.8239" y2="10.7908" gradientUnits="userSpaceOnUse">
<stop stop-color="#2E58FF"/>
<stop offset="1" stop-color="#582EFF"/>
</linearGradient>
<linearGradient id="paint2_linear_188_1438" x1="29.3015" y1="36.6799" x2="81.6955" y2="39.3382" gradientUnits="userSpaceOnUse">
<stop stop-color="#2E58FF"/>
<stop offset="1" stop-color="#582EFF"/>
</linearGradient>
<linearGradient id="paint3_linear_188_1438" x1="50.934" y1="46.6988" x2="58.5787" y2="46.8268" gradientUnits="userSpaceOnUse">
<stop stop-color="#2E58FF"/>
<stop offset="1" stop-color="#582EFF"/>
</linearGradient>
<clipPath id="clip0_188_1438">
<rect width="80" height="80" fill="white"/>
</clipPath>
</defs>
</svg>
