<svg width="60" height="60" viewBox="0 0 60 60" fill="none" xmlns="http://www.w3.org/2000/svg">
<path d="M35.8206 43.055C36.6478 42.1503 37.3734 41.1401 37.9819 40.046L38.1801 39.6275L37.7989 39.4476C37.612 39.3589 37.4197 39.2848 37.2233 39.2258C36.6107 39.0678 35.9873 38.9656 35.3594 38.9203H35.1574L35.0278 39.096C33.9917 40.5365 32.8015 41.8348 31.4829 42.963L31.3723 43.0508L30.9911 44.7709C30.8501 45.3903 30.7129 45.9761 30.5757 46.5369L30.3431 47.4827L31.1246 47.014C32.8711 45.9759 34.4562 44.6395 35.8206 43.055Z" fill="url(#paint0_linear_198_2159)"/>
<path d="M21.6752 49.5836L21.7591 49.2572C21.8658 48.8638 21.9687 48.4453 22.0717 48.0017L21.6905 47.8971L22.0717 47.9975L22.6282 45.5869L22.247 45.4949C20.2224 44.994 18.41 43.7603 17.1011 41.9921C15.161 39.4811 14.1775 35.815 14.1775 31.0734C14.1999 26.0326 15.2978 21.0676 17.3832 16.5767C19.5063 11.9063 22.0717 8.42436 25.0067 6.22724C27.9417 4.03013 30.8082 2.92948 33.5145 2.92948C35.3152 2.85676 37.0779 3.51028 38.4698 4.76669C39.7505 5.96778 40.3985 8.16907 40.3985 11.3078C40.3985 12.103 40.368 13.1115 40.3032 14.3126L40.2804 14.7311H42.9486L42.9753 14.3461C43.2249 10.6151 43.9459 6.94041 45.1175 3.4275L45.2547 3.009L44.8735 2.87926C40.5739 1.39778 38.1839 0.606822 37.5778 0.460347C36.1974 0.15601 34.7929 0.00181503 33.3849 0C29.4664 0 25.4107 1.40615 21.3245 4.18498C17.2384 6.9638 13.804 10.9353 11.09 16.0243C8.37604 21.1132 7 26.3068 7 31.4585C7 35.1538 7.67849 38.4181 9.02023 41.1216C10.32 43.7778 12.2979 45.9595 14.7112 47.399C16.7608 48.6379 19.0322 49.3706 21.3665 49.5459L21.6752 49.5836Z" fill="url(#paint1_linear_198_2159)"/>
<path d="M52.0892 15.0994C49.5286 15.8077 46.8965 16.1564 44.256 16.1373H31.3952C30.3047 16.0864 29.2192 15.9465 28.1476 15.7188L27.5568 15.5556L28.1514 18.711L28.22 19.0165L28.5059 19.0416C28.6012 19.0416 28.7422 19.0416 28.9099 19.0416C29.272 19.0416 29.9543 18.9998 30.1602 19.2551C30.1945 19.3061 30.2179 19.365 30.2284 19.4273C30.239 19.4897 30.2365 19.5538 30.2212 19.615L23.4629 48.4244C22.773 51.3999 21.9802 53.5677 21.1035 54.9236C20.2763 56.1791 18.6068 56.9073 16.1482 57.0454H15.8776L15.0923 60L15.7213 59.8493C17.6632 59.4323 19.6397 59.2416 21.6181 59.2802C23.0818 59.2802 24.5112 59.3137 25.8567 59.3848C28.6927 59.5815 30.507 59.6778 31.399 59.6778C35.7027 59.6806 39.8759 58.0548 43.2154 55.0743C46.7794 52.0025 48.5824 48.1984 48.5824 43.7748C48.5824 40.6068 47.5456 38.1921 45.4987 36.5976C43.4517 35.0031 41.0008 34.2415 38.0886 34.2415C36.8307 34.2415 34.9401 34.3587 32.4625 34.5888C32.9694 32.1532 33.606 29.4539 34.3683 26.5662C35.3632 22.7997 35.9693 20.3976 36.2132 19.3095H42.4988C45.9675 19.3095 47.2597 19.5229 47.7285 19.6987C48.1097 19.8368 48.5671 20.1507 48.5671 21.2764C48.4768 22.5525 48.3023 23.8197 48.0449 25.068L47.9572 25.566H50.5035L50.5492 25.2019C50.6979 23.9464 51.3726 20.7156 52.5542 15.5765L52.7143 14.8901L52.0892 15.0994ZM37.8027 38.1544C38.9548 38.5048 39.9759 39.2478 40.7187 40.2762C41.5544 41.4522 41.9815 42.9165 41.9232 44.4068C41.9381 47.5467 40.8893 50.5807 38.9806 52.919C37.0404 55.3672 34.2349 56.6102 30.6481 56.6102C29.1579 56.591 27.6745 56.3861 26.2265 55.9992C27.5072 54.2875 28.7994 50.5336 30.1602 44.5784L31.7192 37.6271C34.6199 37.6397 36.6668 37.8154 37.8027 38.1544Z" fill="url(#paint2_linear_198_2159)"/>
<defs>
<linearGradient id="paint0_linear_198_2159" x1="7" y1="0" x2="54.3288" y2="1.30177" gradientUnits="userSpaceOnUse">
<stop stop-color="#2E58FF"/>
<stop offset="1" stop-color="#582EFF"/>
</linearGradient>
<linearGradient id="paint1_linear_198_2159" x1="7" y1="0" x2="54.3288" y2="1.30177" gradientUnits="userSpaceOnUse">
<stop stop-color="#2E58FF"/>
<stop offset="1" stop-color="#582EFF"/>
</linearGradient>
<linearGradient id="paint2_linear_198_2159" x1="7" y1="0" x2="54.3288" y2="1.30177" gradientUnits="userSpaceOnUse">
<stop stop-color="#2E58FF"/>
<stop offset="1" stop-color="#582EFF"/>
</linearGradient>
</defs>
</svg>
