<svg width="219" height="60" viewBox="0 0 219 60" fill="none" xmlns="http://www.w3.org/2000/svg">
<path d="M35.8206 43.055C36.6478 42.1503 37.3734 41.1401 37.9819 40.046L38.1801 39.6275L37.7989 39.4476C37.612 39.3589 37.4197 39.2848 37.2233 39.2258C36.6107 39.0678 35.9873 38.9656 35.3594 38.9203H35.1574L35.0278 39.096C33.9917 40.5365 32.8015 41.8348 31.4829 42.963L31.3723 43.0508L30.9911 44.7709C30.8501 45.3903 30.7129 45.9761 30.5757 46.5369L30.3431 47.4827L31.1246 47.014C32.8711 45.9759 34.4562 44.6395 35.8206 43.055Z" fill="white"/>
<path d="M21.6752 49.5836L21.7591 49.2572C21.8658 48.8638 21.9687 48.4453 22.0717 48.0017L21.6905 47.8971L22.0717 47.9975L22.6282 45.5869L22.247 45.4949C20.2224 44.994 18.41 43.7603 17.1011 41.9921C15.161 39.4811 14.1775 35.815 14.1775 31.0734C14.1999 26.0326 15.2978 21.0676 17.3832 16.5767C19.5063 11.9063 22.0717 8.42436 25.0067 6.22724C27.9417 4.03013 30.8082 2.92948 33.5145 2.92948C35.3152 2.85676 37.0779 3.51028 38.4698 4.76669C39.7505 5.96778 40.3985 8.16907 40.3985 11.3078C40.3985 12.103 40.368 13.1115 40.3032 14.3126L40.2804 14.7311H42.9486L42.9753 14.3461C43.2249 10.6151 43.9459 6.94041 45.1175 3.4275L45.2547 3.009L44.8735 2.87926C40.5739 1.39778 38.1839 0.606822 37.5778 0.460347C36.1974 0.15601 34.7929 0.00181503 33.3849 0C29.4664 0 25.4107 1.40615 21.3245 4.18498C17.2384 6.9638 13.804 10.9353 11.09 16.0243C8.37604 21.1132 7 26.3068 7 31.4585C7 35.1538 7.67849 38.4181 9.02023 41.1216C10.32 43.7778 12.2979 45.9595 14.7112 47.399C16.7608 48.6379 19.0322 49.3706 21.3665 49.5459L21.6752 49.5836Z" fill="white"/>
<path d="M52.0892 15.0994C49.5286 15.8077 46.8965 16.1564 44.256 16.1373H31.3952C30.3047 16.0864 29.2192 15.9465 28.1476 15.7188L27.5568 15.5556L28.1514 18.711L28.22 19.0165L28.5059 19.0416C28.6012 19.0416 28.7422 19.0416 28.9099 19.0416C29.272 19.0416 29.9543 18.9998 30.1602 19.2551C30.1945 19.3061 30.2179 19.365 30.2284 19.4273C30.239 19.4897 30.2365 19.5538 30.2212 19.615L23.4629 48.4244C22.773 51.3999 21.9802 53.5677 21.1035 54.9236C20.2763 56.1791 18.6068 56.9073 16.1482 57.0454H15.8776L15.0923 60L15.7213 59.8493C17.6632 59.4323 19.6397 59.2416 21.6181 59.2802C23.0818 59.2802 24.5112 59.3137 25.8567 59.3848C28.6927 59.5815 30.507 59.6778 31.399 59.6778C35.7027 59.6806 39.8759 58.0548 43.2154 55.0743C46.7794 52.0025 48.5824 48.1984 48.5824 43.7748C48.5824 40.6068 47.5456 38.1921 45.4987 36.5976C43.4517 35.0031 41.0008 34.2415 38.0886 34.2415C36.8307 34.2415 34.9401 34.3587 32.4625 34.5888C32.9694 32.1532 33.606 29.4539 34.3683 26.5662C35.3632 22.7997 35.9693 20.3976 36.2132 19.3095H42.4988C45.9675 19.3095 47.2597 19.5229 47.7285 19.6987C48.1097 19.8368 48.5671 20.1507 48.5671 21.2764C48.4768 22.5525 48.3023 23.8197 48.0449 25.068L47.9572 25.566H50.5035L50.5492 25.2019C50.6979 23.9464 51.3726 20.7156 52.5542 15.5765L52.7143 14.8901L52.0892 15.0994ZM37.8027 38.1544C38.9548 38.5048 39.9759 39.2478 40.7187 40.2762C41.5544 41.4522 41.9815 42.9165 41.9232 44.4068C41.9381 47.5467 40.8893 50.5807 38.9806 52.919C37.0404 55.3672 34.2349 56.6102 30.6481 56.6102C29.1579 56.591 27.6745 56.3861 26.2265 55.9992C27.5072 54.2875 28.7994 50.5336 30.1602 44.5784L31.7192 37.6271C34.6199 37.6397 36.6668 37.8154 37.8027 38.1544Z" fill="white"/>
<line x1="76.5" x2="76.5" y2="60" stroke="white"/>
<path d="M104.195 15.9219L103.273 16.6094C102.773 15.9531 102.169 15.4583 101.461 15.125C100.758 14.7865 99.9844 14.6172 99.1406 14.6172C98.2135 14.6172 97.3568 14.8385 96.5703 15.2812C95.7839 15.724 95.1719 16.3203 94.7344 17.0703C94.3021 17.8151 94.0859 18.6562 94.0859 19.5938C94.0859 21.0052 94.5703 22.1849 95.5391 23.1328C96.5078 24.0755 97.7292 24.5469 99.2031 24.5469C100.828 24.5469 102.185 23.9115 103.273 22.6406L104.195 23.3359C103.617 24.0703 102.896 24.638 102.031 25.0391C101.167 25.4401 100.203 25.6406 99.1406 25.6406C97.1094 25.6406 95.5078 24.9661 94.3359 23.6172C93.3568 22.4766 92.8672 21.1016 92.8672 19.4922C92.8672 17.7995 93.4609 16.3724 94.6484 15.2109C95.8411 14.0495 97.3307 13.4688 99.1172 13.4688C100.201 13.4688 101.177 13.6849 102.047 14.1172C102.922 14.5443 103.638 15.1458 104.195 15.9219ZM110.352 16.5625C111.669 16.5625 112.763 17.0391 113.633 17.9922C114.419 18.8672 114.812 19.901 114.812 21.0938C114.812 22.2865 114.396 23.3307 113.562 24.2266C112.729 25.1172 111.659 25.5625 110.352 25.5625C109.039 25.5625 107.966 25.1172 107.133 24.2266C106.305 23.3307 105.891 22.2865 105.891 21.0938C105.891 19.9062 106.284 18.875 107.07 18C107.94 17.0417 109.034 16.5625 110.352 16.5625ZM110.352 17.6406C109.44 17.6406 108.656 17.9792 108 18.6562C107.344 19.3333 107.016 20.151 107.016 21.1094C107.016 21.7292 107.164 22.3099 107.461 22.8516C107.763 23.388 108.169 23.8021 108.68 24.0938C109.19 24.3802 109.747 24.5234 110.352 24.5234C110.966 24.5234 111.526 24.3802 112.031 24.0938C112.542 23.8021 112.945 23.388 113.242 22.8516C113.539 22.3099 113.688 21.7292 113.688 21.1094C113.688 20.151 113.359 19.3333 112.703 18.6562C112.047 17.9792 111.263 17.6406 110.352 17.6406ZM118.938 25.3516H116.453V16.7812H118.898C119.836 16.7812 120.51 16.9974 120.922 17.4297C121.339 17.862 121.547 18.3646 121.547 18.9375C121.547 19.8125 121.161 20.4036 120.391 20.7109C121.505 21.1016 122.062 21.8594 122.062 22.9844C122.062 24.5625 121.021 25.3516 118.938 25.3516ZM117.562 17.7344V20.4062H118.281C118.932 20.4062 119.357 20.3802 119.555 20.3281C119.758 20.276 119.945 20.1484 120.117 19.9453C120.294 19.737 120.383 19.4635 120.383 19.125C120.383 18.7604 120.289 18.4583 120.102 18.2188C119.919 17.9792 119.727 17.8385 119.523 17.7969C119.326 17.7552 118.911 17.7344 118.281 17.7344H117.562ZM117.562 21.4219V24.4219H118.742C119.299 24.4219 119.698 24.3854 119.938 24.3125C120.177 24.2396 120.383 24.0859 120.555 23.8516C120.727 23.6172 120.812 23.3203 120.812 22.9609C120.812 22.4922 120.664 22.1198 120.367 21.8438C120.07 21.5625 119.682 21.4219 119.203 21.4219H117.562ZM124 16.7812H125.094V18.3594C125.526 17.7552 126.026 17.3047 126.594 17.0078C127.167 16.7109 127.802 16.5625 128.5 16.5625C129.719 16.5625 130.76 17 131.625 17.875C132.49 18.75 132.922 19.8047 132.922 21.0391C132.922 22.2995 132.492 23.3698 131.633 24.25C130.773 25.125 129.74 25.5625 128.531 25.5625C127.849 25.5625 127.221 25.4219 126.648 25.1406C126.076 24.8594 125.557 24.4375 125.094 23.875V28.4766H124V16.7812ZM128.406 17.625C127.458 17.625 126.656 17.9583 126 18.625C125.344 19.2917 125.016 20.1198 125.016 21.1094C125.016 21.7604 125.161 22.349 125.453 22.875C125.745 23.3958 126.161 23.8073 126.703 24.1094C127.245 24.4115 127.818 24.5625 128.422 24.5625C129.016 24.5625 129.573 24.4089 130.094 24.1016C130.62 23.7943 131.036 23.3646 131.344 22.8125C131.656 22.2604 131.812 21.6849 131.812 21.0859C131.812 20.4714 131.659 19.8932 131.352 19.3516C131.044 18.8047 130.63 18.3802 130.109 18.0781C129.594 17.776 129.026 17.625 128.406 17.625ZM142.25 22.5078L143.172 23C142.875 23.599 142.526 24.0807 142.125 24.4453C141.724 24.8099 141.273 25.0885 140.773 25.2812C140.273 25.4688 139.708 25.5625 139.078 25.5625C137.682 25.5625 136.591 25.1068 135.805 24.1953C135.018 23.2786 134.625 22.2448 134.625 21.0938C134.625 20.0052 134.958 19.0365 135.625 18.1875C136.469 17.1042 137.602 16.5625 139.023 16.5625C140.477 16.5625 141.641 17.1172 142.516 18.2266C143.135 19.0078 143.448 19.9818 143.453 21.1484H135.758C135.779 22.1484 136.096 22.9688 136.711 23.6094C137.326 24.2448 138.083 24.5625 138.984 24.5625C139.422 24.5625 139.846 24.487 140.258 24.3359C140.669 24.1797 141.018 23.9766 141.305 23.7266C141.596 23.4766 141.911 23.0703 142.25 22.5078ZM142.25 20.2031C142.104 19.6146 141.891 19.1458 141.609 18.7969C141.328 18.4427 140.956 18.1589 140.492 17.9453C140.029 17.7266 139.542 17.6172 139.031 17.6172C138.193 17.6172 137.471 17.888 136.867 18.4297C136.43 18.8255 136.099 19.4167 135.875 20.2031H142.25ZM155.078 16.7812H155.383L158.289 25.3516H157.148L155.031 19.0391L151.734 25.3516H151.531L148.234 19.0391L146.125 25.3516H144.969L147.891 16.7812H148.195L151.633 23.4844L155.078 16.7812ZM167.156 22.5078L168.078 23C167.781 23.599 167.432 24.0807 167.031 24.4453C166.63 24.8099 166.18 25.0885 165.68 25.2812C165.18 25.4688 164.615 25.5625 163.984 25.5625C162.589 25.5625 161.497 25.1068 160.711 24.1953C159.924 23.2786 159.531 22.2448 159.531 21.0938C159.531 20.0052 159.865 19.0365 160.531 18.1875C161.375 17.1042 162.508 16.5625 163.93 16.5625C165.383 16.5625 166.547 17.1172 167.422 18.2266C168.042 19.0078 168.354 19.9818 168.359 21.1484H160.664C160.685 22.1484 161.003 22.9688 161.617 23.6094C162.232 24.2448 162.99 24.5625 163.891 24.5625C164.328 24.5625 164.753 24.487 165.164 24.3359C165.576 24.1797 165.924 23.9766 166.211 23.7266C166.503 23.4766 166.818 23.0703 167.156 22.5078ZM167.156 20.2031C167.01 19.6146 166.797 19.1458 166.516 18.7969C166.234 18.4427 165.862 18.1589 165.398 17.9453C164.935 17.7266 164.448 17.6172 163.938 17.6172C163.099 17.6172 162.378 17.888 161.773 18.4297C161.336 18.8255 161.005 19.4167 160.781 20.2031H167.156ZM176.758 21.2266H171.781V25.3516H170.672V16.7812H171.781V20.1875H176.758V16.7812H177.859V25.3516H176.758V21.2266ZM186.383 21.2266H181.406V25.3516H180.297V16.7812H181.406V20.1875H186.383V16.7812H187.484V25.3516H186.383V21.2266ZM198.461 16.7812V25.3516H197.375V23.875C196.911 24.4375 196.393 24.8594 195.82 25.1406C195.247 25.4219 194.62 25.5625 193.938 25.5625C192.724 25.5625 191.688 25.125 190.828 24.25C189.969 23.3698 189.539 22.2995 189.539 21.0391C189.539 19.8047 189.971 18.75 190.836 17.875C191.701 17 192.742 16.5625 193.961 16.5625C194.669 16.5625 195.307 16.7109 195.875 17.0078C196.443 17.3047 196.943 17.7552 197.375 18.3594V16.7812H198.461ZM194.047 17.625C193.438 17.625 192.872 17.776 192.352 18.0781C191.831 18.3802 191.417 18.8047 191.109 19.3516C190.802 19.8932 190.648 20.4714 190.648 21.0859C190.648 21.6849 190.805 22.2604 191.117 22.8125C191.43 23.3646 191.846 23.7943 192.367 24.1016C192.888 24.4089 193.445 24.5625 194.039 24.5625C194.643 24.5625 195.216 24.4115 195.758 24.1094C196.299 23.8073 196.716 23.3958 197.008 22.875C197.299 22.349 197.445 21.7604 197.445 21.1094C197.445 20.1198 197.117 19.2917 196.461 18.625C195.81 17.9583 195.005 17.625 194.047 17.625ZM204.133 21.5156H203.344L200.906 25.3516H199.719L202.297 21.4062C201.651 21.3281 201.13 21.0859 200.734 20.6797C200.339 20.2682 200.141 19.763 200.141 19.1641C200.141 18.4089 200.37 17.8229 200.828 17.4062C201.286 16.9896 201.888 16.7812 202.633 16.7812H205.242V25.3516H204.133V21.5156ZM204.133 17.7344H203.414C202.706 17.7344 202.232 17.7786 201.992 17.8672C201.753 17.9557 201.562 18.1094 201.422 18.3281C201.281 18.5469 201.211 18.8411 201.211 19.2109C201.211 19.5599 201.302 19.849 201.484 20.0781C201.672 20.3073 201.878 20.4479 202.102 20.5C202.326 20.5521 202.763 20.5781 203.414 20.5781H204.133V17.7344ZM101.422 31.2969V32.3438C100.896 32.4375 99.9948 32.5026 98.7188 32.5391C97.7917 32.5703 97.0781 32.6328 96.5781 32.7266C96.0781 32.8151 95.6406 32.9896 95.2656 33.25C94.8906 33.5104 94.5755 33.9036 94.3203 34.4297C94.0703 34.9557 93.9141 35.5443 93.8516 36.1953L93.7422 37.4062C94.0391 36.4271 94.5286 35.7083 95.2109 35.25C95.8984 34.7917 96.6615 34.5625 97.5 34.5625C98.7708 34.5625 99.8307 35.0078 100.68 35.8984C101.534 36.7891 101.961 37.8542 101.961 39.0938C101.961 40.3125 101.536 41.362 100.688 42.2422C99.8385 43.1224 98.776 43.5625 97.5 43.5625C96.1927 43.5625 95.0833 43.0755 94.1719 42.1016C93.2656 41.1276 92.8125 39.5911 92.8125 37.4922C92.8125 36.0286 92.9792 34.9219 93.3125 34.1719C93.6458 33.4167 94.026 32.875 94.4531 32.5469C94.8854 32.2135 95.4427 31.9505 96.125 31.7578C96.8125 31.5651 98.0938 31.4479 99.9688 31.4062C100.542 31.3854 101.026 31.349 101.422 31.2969ZM100.844 39.1094C100.844 38.1615 100.513 37.3464 99.8516 36.6641C99.1901 35.9818 98.4062 35.6406 97.5 35.6406C96.5938 35.6406 95.8099 35.9818 95.1484 36.6641C94.4922 37.3464 94.1641 38.1615 94.1641 39.1094C94.1641 40.0573 94.4818 40.8646 95.1172 41.5312C95.7578 42.1927 96.5521 42.5234 97.5 42.5234C98.4583 42.5234 99.2552 42.1927 99.8906 41.5312C100.526 40.8646 100.844 40.0573 100.844 39.1094ZM102.477 34.7812H103.641L106.586 41.3828L109.445 34.7812H110.625L105.508 46.4766H104.344L105.992 42.7031L102.477 34.7812ZM111.352 34.7812H112.672L114.938 37.9609L117.211 34.7812H118.531L115.594 38.8516L118.898 43.3516H117.562L114.938 39.75L112.352 43.3516H111.039L114.281 38.8516L111.352 34.7812ZM121.719 35.75V43.3516H120.625V34.7812H124.953V35.75H121.719ZM134.977 34.7812V43.3516H133.891V41.875C133.427 42.4375 132.909 42.8594 132.336 43.1406C131.763 43.4219 131.135 43.5625 130.453 43.5625C129.24 43.5625 128.203 43.125 127.344 42.25C126.484 41.3698 126.055 40.2995 126.055 39.0391C126.055 37.8047 126.487 36.75 127.352 35.875C128.216 35 129.258 34.5625 130.477 34.5625C131.185 34.5625 131.823 34.7109 132.391 35.0078C132.958 35.3047 133.458 35.7552 133.891 36.3594V34.7812H134.977ZM130.562 35.625C129.953 35.625 129.388 35.776 128.867 36.0781C128.346 36.3802 127.932 36.8047 127.625 37.3516C127.318 37.8932 127.164 38.4714 127.164 39.0859C127.164 39.6849 127.32 40.2604 127.633 40.8125C127.945 41.3646 128.362 41.7943 128.883 42.1016C129.404 42.4089 129.961 42.5625 130.555 42.5625C131.159 42.5625 131.732 42.4115 132.273 42.1094C132.815 41.8073 133.232 41.3958 133.523 40.875C133.815 40.349 133.961 39.7604 133.961 39.1094C133.961 38.1198 133.633 37.2917 132.977 36.625C132.326 35.9583 131.521 35.625 130.562 35.625ZM144.43 43.3516H143.258L140.391 37.1172L137.547 43.3516H136.367L140.289 34.7812H140.484L144.43 43.3516ZM145.156 34.7812H150.789V35.7344H148.531V43.3516H147.414V35.7344H145.156V34.7812ZM159.5 40.5078L160.422 41C160.125 41.599 159.776 42.0807 159.375 42.4453C158.974 42.8099 158.523 43.0885 158.023 43.2812C157.523 43.4688 156.958 43.5625 156.328 43.5625C154.932 43.5625 153.841 43.1068 153.055 42.1953C152.268 41.2786 151.875 40.2448 151.875 39.0938C151.875 38.0052 152.208 37.0365 152.875 36.1875C153.719 35.1042 154.852 34.5625 156.273 34.5625C157.727 34.5625 158.891 35.1172 159.766 36.2266C160.385 37.0078 160.698 37.9818 160.703 39.1484H153.008C153.029 40.1484 153.346 40.9688 153.961 41.6094C154.576 42.2448 155.333 42.5625 156.234 42.5625C156.672 42.5625 157.096 42.487 157.508 42.3359C157.919 42.1797 158.268 41.9766 158.555 41.7266C158.846 41.4766 159.161 41.0703 159.5 40.5078ZM159.5 38.2031C159.354 37.6146 159.141 37.1458 158.859 36.7969C158.578 36.4427 158.206 36.1589 157.742 35.9453C157.279 35.7266 156.792 35.6172 156.281 35.6172C155.443 35.6172 154.721 35.888 154.117 36.4297C153.68 36.8255 153.349 37.4167 153.125 38.2031H159.5ZM163.031 34.7812H164.125V36.3594C164.557 35.7552 165.057 35.3047 165.625 35.0078C166.198 34.7109 166.833 34.5625 167.531 34.5625C168.75 34.5625 169.792 35 170.656 35.875C171.521 36.75 171.953 37.8047 171.953 39.0391C171.953 40.2995 171.523 41.3698 170.664 42.25C169.805 43.125 168.771 43.5625 167.562 43.5625C166.88 43.5625 166.253 43.4219 165.68 43.1406C165.107 42.8594 164.589 42.4375 164.125 41.875V46.4766H163.031V34.7812ZM167.438 35.625C166.49 35.625 165.688 35.9583 165.031 36.625C164.375 37.2917 164.047 38.1198 164.047 39.1094C164.047 39.7604 164.193 40.349 164.484 40.875C164.776 41.3958 165.193 41.8073 165.734 42.1094C166.276 42.4115 166.849 42.5625 167.453 42.5625C168.047 42.5625 168.604 42.4089 169.125 42.1016C169.651 41.7943 170.068 41.3646 170.375 40.8125C170.688 40.2604 170.844 39.6849 170.844 39.0859C170.844 38.4714 170.69 37.8932 170.383 37.3516C170.076 36.8047 169.661 36.3802 169.141 36.0781C168.625 35.776 168.057 35.625 167.438 35.625ZM175.172 34.7812V41.1172L181.461 34.7812H181.547V43.3516H180.438V37.0703L174.195 43.3516H174.062V34.7812H175.172ZM187.602 39.5156H186.812L184.375 43.3516H183.188L185.766 39.4062C185.12 39.3281 184.599 39.0859 184.203 38.6797C183.807 38.2682 183.609 37.763 183.609 37.1641C183.609 36.4089 183.839 35.8229 184.297 35.4062C184.755 34.9896 185.357 34.7812 186.102 34.7812H188.711V43.3516H187.602V39.5156ZM187.602 35.7344H186.883C186.174 35.7344 185.701 35.7786 185.461 35.8672C185.221 35.9557 185.031 36.1094 184.891 36.3281C184.75 36.5469 184.68 36.8411 184.68 37.2109C184.68 37.5599 184.771 37.849 184.953 38.0781C185.141 38.3073 185.346 38.4479 185.57 38.5C185.794 38.5521 186.232 38.5781 186.883 38.5781H187.602V35.7344Z" fill="white"/>
</svg>
