<svg width="80" height="80" viewBox="0 0 80 80" fill="none" xmlns="http://www.w3.org/2000/svg">
<path d="M44.0016 30.3953C43.6256 29.9582 43.276 29.4991 42.9547 29.0203C41.1599 26.3465 40.2841 23.1613 40.4595 19.9458C40.635 16.7302 41.8522 13.6592 43.9272 11.1966C44.7742 10.1924 45.7501 9.30446 46.8297 8.55593C48.6503 7.29199 50.7328 6.45536 52.9219 6.10843C52.1467 5.98523 51.363 5.92337 50.5781 5.92343C47.89 5.92391 45.2525 6.655 42.9477 8.03855C40.6429 9.42209 38.7575 11.4061 37.493 13.7783C36.2286 16.1505 35.6327 18.8218 35.7691 21.5065C35.9054 24.1912 36.7689 26.7884 38.2672 29.0203C38.5885 29.4991 38.9381 29.9582 39.3141 30.3953C40.9658 32.3236 43.0846 33.7958 45.4678 34.6713C47.8511 35.5467 50.4191 35.796 52.9263 35.3953C51.0572 35.0996 49.2626 34.4465 47.6406 33.4719C46.2703 32.6484 45.0416 31.6095 44.0016 30.3953V30.3953Z" fill="#C4CDDE"/>
<path d="M54.5483 49.5542H72.9961C73.3834 49.5537 73.7547 49.3997 74.0285 49.1258C74.3023 48.852 74.4563 48.4807 74.4567 48.0934V44.3261C74.4563 43.9388 74.3023 43.5675 74.0285 43.2937C73.7547 43.0198 73.3834 42.8658 72.9961 42.8653H54.5483C54.161 42.8658 53.7897 43.0198 53.5159 43.2936C53.242 43.5675 53.088 43.9388 53.0875 44.3261V48.0937C53.0881 48.481 53.2421 48.8522 53.516 49.126C53.7898 49.3997 54.1611 49.5537 54.5483 49.5542ZM54.9625 44.7403H72.5817V47.6792H54.9625V44.7403Z" fill="url(#paint0_linear_188_1395)"/>
<path d="M73.128 54.6289H54.4166C54.1679 54.6289 53.9295 54.7277 53.7537 54.9035C53.5778 55.0793 53.4791 55.3178 53.4791 55.5664V70.1517C53.4791 70.4004 53.5778 70.6388 53.7537 70.8146C53.9295 70.9904 54.1679 71.0892 54.4166 71.0892H73.128C73.3766 71.0892 73.6151 70.9904 73.7909 70.8146C73.9667 70.6388 74.0655 70.4004 74.0655 70.1517V55.5664C74.0655 55.3178 73.9667 55.0793 73.7909 54.9035C73.6151 54.7277 73.3766 54.6289 73.128 54.6289ZM72.1905 58.3711H70.3231V56.5039H72.1905V58.3711ZM62.8386 62.1134V60.2461H64.7059V62.1134H62.8386ZM64.7059 63.9884V65.8558H62.8386V63.9884H64.7059ZM66.5809 60.2461H68.4481V62.1134H66.5809V60.2461ZM66.5809 58.3711V56.5039H68.4481V58.3711H66.5809ZM64.7059 58.3711H62.8386V56.5039H64.7059V58.3711ZM60.9636 58.3711H59.0963V56.5039H60.9636V58.3711ZM60.9636 60.2461V62.1134H59.0963V60.2461H60.9636ZM57.2213 62.1134H55.3541V60.2461H57.2213V62.1134ZM57.2213 63.9884V65.8558H55.3541V63.9884H57.2213ZM59.0963 63.9884H60.9636V65.8558H59.0963V63.9884ZM60.9636 67.7308V69.2142H59.0963V67.7308H60.9636ZM62.8386 67.7308H64.7059V69.2142H62.8386V67.7308ZM66.5809 67.7308H68.4481V69.2142H66.5809V67.7308ZM66.5809 65.8558V63.9884H68.4481V65.8558H66.5809ZM70.3231 63.9884H72.1905V65.8558H70.3231V63.9884ZM70.3231 62.1134V60.2461H72.1905V62.1134H70.3231ZM57.2213 56.5041V58.3712H55.3541V56.5041H57.2213ZM55.3541 67.7309H57.2213V69.2144H55.3541V67.7309ZM70.3228 69.2144V67.7309H72.1902V69.2144H70.3228Z" fill="url(#paint1_linear_188_1395)"/>
<path d="M47.2706 55.1367C47.2706 54.8881 47.1719 54.6496 46.996 54.4738C46.8202 54.298 46.5818 54.1992 46.3331 54.1992H43.8906V33.4715H42.0156V54.1992H40.2509V30.3958H38.3759V54.1992H36.6119V31.537L38.8509 29.7526L37.6823 28.2864L28.3906 35.6908C28.1813 35.857 27.922 35.9476 27.6547 35.9479H14.9427C14.4541 35.9474 13.9731 36.0679 13.5425 36.2986C13.112 36.5294 12.7453 36.8633 12.4753 37.2704L3.4375 50.8822V27.8798C3.4375 27.6312 3.33873 27.3927 3.16291 27.2169C2.9871 27.0411 2.74864 26.9423 2.5 26.9423C2.25136 26.9423 2.0129 27.0411 1.83709 27.2169C1.66127 27.3927 1.5625 27.6312 1.5625 27.8798V55.1367C1.5625 55.3853 1.66127 55.6238 1.83709 55.7996C2.0129 55.9754 2.25136 56.0742 2.5 56.0742H46.3331C46.5818 56.0742 46.8202 55.9754 46.996 55.7996C47.1719 55.6238 47.2706 55.3853 47.2706 55.1367ZM34.7369 54.1992H32.9727V34.4375L34.7369 33.0312V54.1992ZM31.0977 35.9312V54.1992H29.3336V37.3197C29.4109 37.2689 29.4866 37.2151 29.5592 37.1573L31.0977 35.9312ZM22.0553 37.8229H23.8194V54.1992H22.0553V37.8229ZM20.1803 54.1992H18.4161V37.8229H20.1803V54.1992ZM25.6944 37.8229H27.4586V54.1992H25.6944V37.8229ZM14.9433 37.8229H16.5411V54.1992H14.778L14.7936 37.834C14.8432 37.8269 14.8932 37.8232 14.9433 37.8229ZM12.9159 39.9965L12.903 54.1997H11.1373V42.6744L12.9159 39.9965ZM7.49875 48.1553L9.26281 45.499V54.1998H7.49875V48.1553ZM5.62375 54.1992H3.48578L5.62375 50.9792V54.1992Z" fill="url(#paint2_linear_188_1395)"/>
<path d="M75.7557 39.4769H51.7887C51.0775 39.4769 50.3954 39.7594 49.8925 40.2623C49.3895 40.7652 49.107 41.4474 49.107 42.1586V59.4826C49.107 59.7313 49.2058 59.9697 49.3816 60.1456C49.5574 60.3214 49.7959 60.4201 50.0445 60.4201C50.2931 60.4201 50.5316 60.3214 50.7074 60.1456C50.8832 59.9697 50.982 59.7313 50.982 59.4826V52.6906H76.5625V72.3325C76.5625 72.4384 76.5416 72.5433 76.5011 72.6412C76.4605 72.7391 76.4011 72.828 76.3262 72.9029C76.2513 72.9778 76.1623 73.0373 76.0645 73.0778C75.9666 73.1183 75.8617 73.1392 75.7557 73.1392H51.7887C51.5748 73.1392 51.3696 73.0542 51.2183 72.9029C51.067 72.7516 50.982 72.5464 50.982 72.3325V67.2951C50.982 67.0465 50.8832 66.8081 50.7074 66.6322C50.5316 66.4564 50.2931 66.3576 50.0445 66.3576C49.7959 66.3576 49.5574 66.4564 49.3816 66.6322C49.2058 66.8081 49.107 67.0465 49.107 67.2951V72.3325C49.107 73.0437 49.3895 73.7258 49.8925 74.2288C50.3954 74.7317 51.0775 75.0142 51.7887 75.0142H75.7557C76.1079 75.0142 76.4566 74.9448 76.782 74.8101C77.1074 74.6753 77.403 74.4778 77.652 74.2288C77.901 73.9797 78.0986 73.6841 78.2333 73.3587C78.3681 73.0334 78.4375 72.6847 78.4375 72.3325V42.1586C78.4375 41.8064 78.3681 41.4577 78.2333 41.1323C78.0986 40.807 77.901 40.5113 77.652 40.2623C77.403 40.0133 77.1074 39.8158 76.782 39.681C76.4566 39.5462 76.1079 39.4769 75.7557 39.4769ZM76.5625 50.8156H50.982V42.1586C50.9822 41.9447 51.0673 41.7397 51.2185 41.5884C51.3698 41.4372 51.5748 41.3521 51.7887 41.3519H75.7557C75.9696 41.3521 76.1747 41.4372 76.3259 41.5884C76.4771 41.7397 76.5622 41.9447 76.5625 42.1586V50.8156Z" fill="url(#paint3_linear_188_1395)"/>
<path d="M51.4492 5.00937C48.1064 4.82778 44.7924 5.71342 41.9859 7.53837C39.1793 9.36333 37.0255 12.0331 35.8355 15.1622C35.7814 15.3042 35.7627 15.4573 35.7809 15.6081C35.7991 15.759 35.8537 15.9032 35.9399 16.0283C36.0262 16.1535 36.1415 16.2558 36.276 16.3265C36.4105 16.3972 36.5602 16.4341 36.7122 16.4342C36.9035 16.4334 37.0901 16.3743 37.2471 16.2649C37.4041 16.1554 37.5241 16.0008 37.5911 15.8216C38.4798 13.4965 39.9741 11.4515 41.9192 9.89827L49.742 21.4806C49.8279 21.6077 49.9436 21.7118 50.079 21.7838C50.2145 21.8558 50.3655 21.8934 50.5189 21.8934H64.4219C64.1452 25.261 62.6505 28.4122 60.2177 30.7571C57.785 33.102 54.5809 34.4797 51.2055 34.6324C47.83 34.785 44.5147 33.7021 41.8802 31.5864C39.2457 29.4707 37.4727 26.4672 36.8931 23.1384C36.8542 22.9226 36.7404 22.7274 36.5718 22.5872C36.4032 22.447 36.1905 22.3707 35.9712 22.3717C35.8346 22.3715 35.6996 22.4012 35.5757 22.4587C35.4517 22.5162 35.3418 22.6001 35.2537 22.7045C35.1656 22.8089 35.1013 22.9313 35.0655 23.0631C35.0296 23.1949 35.023 23.333 35.0461 23.4676C35.7352 27.4071 37.8957 30.9375 41.09 33.344C44.2843 35.7505 48.2737 36.8531 52.2504 36.4287C56.2272 36.0043 59.894 34.0845 62.5085 31.0582C65.123 28.0318 66.4898 24.125 66.332 20.1287C66.0187 12.0406 59.5312 5.44655 51.4492 5.00937ZM43.459 8.82812C45.9748 7.32256 48.9032 6.65336 51.8232 6.9167C54.7433 7.18004 57.5046 8.36236 59.7105 10.2937L50.6011 19.4031L43.459 8.82812ZM52.6373 20.0183L61.0362 11.6195C63.0853 13.9561 64.2877 16.9147 64.4498 20.0183H52.6373Z" fill="url(#paint4_linear_188_1395)"/>
<defs>
<linearGradient id="paint0_linear_188_1395" x1="53.0875" y1="42.8653" x2="74.9375" y2="45.3852" gradientUnits="userSpaceOnUse">
<stop stop-color="#2E58FF"/>
<stop offset="1" stop-color="#582EFF"/>
</linearGradient>
<linearGradient id="paint1_linear_188_1395" x1="53.4791" y1="54.6289" x2="74.7653" y2="55.59" gradientUnits="userSpaceOnUse">
<stop stop-color="#2E58FF"/>
<stop offset="1" stop-color="#582EFF"/>
</linearGradient>
<linearGradient id="paint2_linear_188_1395" x1="1.5625" y1="26.9423" x2="48.7692" y2="29.6162" gradientUnits="userSpaceOnUse">
<stop stop-color="#2E58FF"/>
<stop offset="1" stop-color="#582EFF"/>
</linearGradient>
<linearGradient id="paint3_linear_188_1395" x1="49.107" y1="39.4769" x2="79.4693" y2="40.3815" gradientUnits="userSpaceOnUse">
<stop stop-color="#2E58FF"/>
<stop offset="1" stop-color="#582EFF"/>
</linearGradient>
<linearGradient id="paint4_linear_188_1395" x1="35.0326" y1="4.98611" x2="67.433" y2="6.14761" gradientUnits="userSpaceOnUse">
<stop stop-color="#2E58FF"/>
<stop offset="1" stop-color="#582EFF"/>
</linearGradient>
</defs>
</svg>
